<svg xmlns="http://www.w3.org/2000/svg" viewBox="0 0 1174.6 635"><title>Untitled-6</title><path d="M786.8 338.9h-10.6v-.8h22.2v.8h-10.6v28.6h-.9v-28.6zm16.4-.8h.9v14.2h21v-14.2h.9v29.4h-.9v-14.4h-21v14.4h-.9v-29.4zm31 0h20.5v.8h-19.6v13.4h17.8v.8h-17.8v13.5h19.8v.8h-20.8v-29.3h.1zm38.2 0h9.5c9.2 0 15.6 6.4 15.6 14.7v.1c0 8.3-6.4 14.7-15.6 14.7h-9.5v-29.5zm.9.8v27.7h8.6c8.7 0 14.7-6.1 14.7-13.8v-.1c0-7.7-6-13.9-14.8-13.9l-8.5.1zm31-.8h12c3.8 0 6.6 1 8.4 2.8 1.4 1.5 2.2 3.4 2.1 5.5v.1c0 5-4 7.9-9.6 8.2l9.8 12.9h-1.1l-9.8-12.8h-10.9v12.8h-.9v-29.5zm11.5 15.7c6.8 0 10.1-3.2 10.1-7.4v-.1c0-4.7-3.6-7.4-9.7-7.4h-11v14.9h10.6zm18.6-15.7h.9v29.4h-.9v-29.4zm6.5 0h1l12.7 28.3 12.7-28.3h1L955 367.7h-.7l-13.4-29.6zm32.7 0h20.5v.8h-19.6v13.4h17.8v.8h-17.8v13.5h19.8v.8h-20.8v-29.3h.1zm-186.8 49.4h-10.6v-.8h22.2v.8h-10.6v28.6h-.9v-28.6zm12.8 14c0-8.1 5.7-15.2 14.6-15.2s14.6 7.1 14.6 15.2v.1c0 8-5.7 15.2-14.6 15.2s-14.6-7.3-14.6-15.3zm28.3 0c0-7.6-5.5-14.4-13.7-14.4s-13.7 6.7-13.7 14.3v.1c0 7.5 5.5 14.4 13.7 14.4s13.7-6.8 13.7-14.4zm18.9-14.8h9.5c9.2 0 15.6 6.4 15.6 14.7v.1c0 8.3-6.4 14.7-15.6 14.7h-9.5v-29.5zm.9.8v27.7h8.6c8.7 0 14.7-6.1 14.7-13.8v-.1c0-7.7-6-13.9-14.7-13.9l-8.6.1zm30.9-.8h20.5v.8h-19.6v13.4h17.8v.8h-17.8v13.5h19.8v.8h-20.8v-29.3h.1zm24.3 0h1l12.7 28.3 12.7-28.3h1L917 416.3h-.7l-13.4-29.6zm32.8 0h20.5v.8h-19.6v13.4h17.8v.8h-17.8v13.5h19.8v.8h-20.8v-29.3h.1zm27.1 0h.9v28.6h18.1v.8h-19v-29.4zm20.5 14.8c0-8.1 5.7-15.2 14.6-15.2s14.6 7.1 14.6 15.2v.1c0 8-5.7 15.2-14.6 15.2s-14.6-7.3-14.6-15.3zm28.3 0c0-7.6-5.5-14.4-13.7-14.4s-13.7 6.7-13.7 14.3v.1c0 7.5 5.5 14.4 13.7 14.4s13.7-6.8 13.7-14.4zm7.7-14.8h10.3c7.2 0 11.3 3.3 11.3 8.8v.1c0 5.7-4.4 9-11.5 9h-9.2v11.5h-.9v-29.4zm10.1 17c6.5 0 10.5-2.9 10.5-8.1v-.1c0-5-3.9-8-10.5-8h-9.3v16.2h9.3z" fill="#FFF"/><linearGradient id="a" gradientUnits="userSpaceOnUse" x1="401.535" y1="531.381" x2="1139.275" y2="111.191" gradientTransform="translate(0 -75.96)"><stop offset="0" stop-color="#29ABE2"/><stop offset="1" stop-color="#9F77A6"/></linearGradient><path d="M1174.6 36.4c-.1-20.1-16.3-36.3-36.4-36.4-6.7 0-13.2 1.8-19 5.1L275.5 506.3c-6.1 2.9-10.1 9.1-10.3 15.9 0 9.8 8.2 17.4 18 17.4 3.1 0 5.6-.5 7.7-2 .3 0 .5-.2.5-.5l861.7-468.3c1.5-.5 2.9-1.4 4.1-2.6 10.8-6 17.5-17.4 17.4-29.8z" fill="url(#a)"/><linearGradient id="b" gradientUnits="userSpaceOnUse" x1="498.18" y1="218.373" x2="1100.18" y2="114.403" gradientTransform="translate(0 -75.96)"><stop offset="0" stop-color="#EA0E7D"/><stop offset="1" stop-color="#9F77A6"/></linearGradient><path d="M1174.6 36.4c-.1-20.1-16.3-36.3-36.4-36.4h-4.1L491.4 91.8c-28.2 1.5-49.8 26.2-48.2 54.4s26.2 49.8 54.4 48.2c4.6-.5 8.7-1 12.8-2.6l632.9-120c1.5 0 2.6-.5 4.1-.5 15.4-4.1 27.2-18 27.2-34.9z" fill="url(#b)"/><linearGradient id="c" gradientUnits="userSpaceOnUse" x1="481.368" y1="198.801" x2="676.168" y2="536.721" gradientTransform="translate(0 -75.96)"><stop offset="0" stop-color="#EA0E7D"/><stop offset="1" stop-color="#5D2E8E"/></linearGradient><path d="M741.2 459.6c-.4-12.6-4.4-24.8-11.3-35.4L542.2 124.6c-7.7-20-28.2-33.8-50.8-32.8-28.2 1.5-49.8 26.2-48.2 54.4.1 4 .8 8 2.1 11.8 2 6.2 4.6 11.8 8.7 16.4l162 310.8c1.5 4 3.6 7.8 6.2 11.3 12.3 18.8 33.5 29.8 55.9 29.2 35.4-.5 63.6-30.2 63.1-66.1z" fill="url(#c)"/><linearGradient id="d" gradientUnits="userSpaceOnUse" x1="226.249" y1="239.782" x2="682.339" y2="540.762" gradientTransform="translate(0 -75.96)"><stop offset="0" stop-color="#4AC7F4"/><stop offset="1" stop-color="#5D2E8E"/></linearGradient><path d="M741.2 459.6c-.6-25.3-15.9-47.9-39-58l-467.3-258c-4.1-2.1-8.7-3.6-13.3-3.1-12.4 1.1-21.6 12-20.5 24.5v.2c.4 7.3 4.5 13.8 10.8 17.4l418.5 323.6c12.7 12.9 30.1 19.9 48.2 19.5 34.9-.5 63.1-30.2 62.6-66.1z" fill="url(#d)"/><path d="M456 188.2h261.6v261.6H456V188.2z"/><path d="M478.6 400.6h98V417h-98v-16.4zM477.5 257l7.7-7.2c2 2.6 4.1 4.1 6.7 4.1 3.1 0 4.6-2.1 4.6-6.2v-27.2h11.8v27.2c0 5.1-1.5 9.2-4.1 11.8s-6.7 4.1-11.8 4.1c-5.8.7-11.5-1.8-14.9-6.6zm33.9-35.9h34.4v9.8h-22.6v6.7h20.5v9.2h-20.5v6.7h23.1v10.3h-34.4v-42.6l-.5-.1zm49.7 10.3h-12.8v-10.3h37.4v10.3h-12.8v32.3h-11.8v-32.3zm-82.5 42h22.1c5.1 0 9.2 1.5 11.8 3.6 1.8 2 2.7 4.5 2.6 7.2 0 5.1-2.6 7.7-6.7 9.8 5.1 1.5 8.7 4.6 8.7 10.3 0 7.2-6.2 11.8-15.9 11.8h-22v-42.6l-.6-.1zm24.6 13.4c0-2.6-2-3.6-5.1-3.6h-7.7v7.7h7.2c3.5-.6 5.6-1.6 5.6-4.1zm-4.1 11.8h-9.2v7.7h9.2c3.6 0 5.6-1.5 5.6-4.1.5-2.1-1.5-3.7-5.6-3.6zm19.5-25.2h20c6.7 0 11.3 1.5 13.9 4.6 2.6 2.6 3.6 5.6 3.6 9.8 0 6.7-3.6 10.8-8.7 13.3l10.3 14.9h-13.3l-8.7-12.8h-5.1V316h-11.8l-.2-42.6zm19.5 20.5c4.1 0 6.2-2 6.2-5.1 0-3.6-2.6-5.1-6.2-5.1h-7.7v10.2h7.7zm32.3-20.5h11.3l18 43.1h-12.9l-3.1-7.7h-16.4l-2.6 7.2h-12.3l18-42.6zm10.2 25.6l-4.6-11.8-4.6 12.3h9.2v-.5zm20.6-25.6H613V316h-11.8v-42.6zm14.8 0h11.3l17.4 22.6v-22.6h11.8V316h-10.3l-18.5-23.6V316H616v-42.6zm41 36.4l6.7-7.7c3.8 3.4 8.8 5.2 13.9 5.1 3.1 0 5.1-1 5.1-3.1s-1.5-2.6-7.2-4.1c-9.2-2-15.9-4.6-15.9-13.3 0-7.7 6.2-13.9 16.4-13.9 6.3-.2 12.4 1.8 17.4 5.6l-6.2 8.2c-4.1-2.6-8.2-4.1-11.8-4.1-3.1 0-4.1 1-4.1 2.6 0 2 1.5 2.6 7.2 4.1 9.8 2 15.9 5.1 15.9 13.3 0 8.7-6.7 13.9-17.4 13.9-7.2.6-14.4-1.8-20-6.6z" fill="#FFF"/></svg>